<?xml version="1.0" encoding="UTF-8" standalone="no"?>
<!DOCTYPE svg PUBLIC "-//W3C//DTD SVG 1.1//EN"
 "http://www.w3.org/Graphics/SVG/1.1/DTD/svg11.dtd">
<!-- Generated by graphviz version 11.0.0 (20240428.1522)
 -->
<!-- Title: D Pages: 1 -->
<svg width="1213pt" height="346pt"
 viewBox="0.00 0.00 1212.55 346.08" xmlns="http://www.w3.org/2000/svg" xmlns:xlink="http://www.w3.org/1999/xlink">
<g id="graph0" class="graph" transform="scale(1 1) rotate(0) translate(4 342.08)">
<title>D</title>
<polygon fill="white" stroke="none" points="-4,4 -4,-342.08 1208.55,-342.08 1208.55,4 -4,4"/>

<g id="clust1" class="cluster">
<title>cluster_0</title>
<polygon fill="none" stroke="black" stroke-dasharray="5,2" points="410.94,-202.58 410.94,-285.58 755.17,-285.58 755.17,-202.58 410.94,-202.58"/>
<text text-anchor="middle" x="583.06" y="-273.03" font-family="Helvetica,sans-Serif" font-size="9.00" fill="#000060">Remo 3</text>
</g>
<!-- エアコン -->
<g id="node1" class="node">
<title>エアコン</title>
<polygon fill="none" stroke="black" points="962.6,-246.58 907.6,-246.58 907.6,-210.58 962.6,-210.58 962.6,-246.58"/>
<text text-anchor="middle" x="935.1" y="-224.33" font-family="Helvetica,sans-Serif" font-size="10.00">エアコン</text>
</g>
<!-- スプレッドシート -->
<g id="node2" class="node">
<title>スプレッドシート</title>
<polygon fill="black" stroke="none" points="410,-92.83 410,-96.83 492,-96.83 492,-92.83 410,-92.83"/>
<text text-anchor="start" x="412" y="-79.33" font-family="Helvetica,sans-Serif" font-size="10.00">スプレッドシート</text>
<polygon fill="black" stroke="none" points="410,-70.33 410,-74.33 492,-74.33 492,-70.33 410,-70.33"/>
</g>
<!-- line -->
<g id="node3" class="node">
<title>line</title>
<polygon fill="none" stroke="black" points="259.38,-185.58 205.38,-185.58 205.38,-149.58 259.38,-149.58 259.38,-185.58"/>
<text text-anchor="middle" x="232.38" y="-163.71" font-family="Helvetica,sans-Serif" font-size="10.00">line</text>
</g>
<!-- スプレッドシート&#45;&gt;line -->
<g id="edge13" class="edge">
<title>スプレッドシート&#45;&gt;line</title>
<path fill="none" stroke="gray" d="M400.28,-72.2C368.28,-67.49 326.74,-66.45 294.25,-83.08 271.44,-94.76 255.22,-119.42 245.3,-139.09"/>
<polygon fill="gray" stroke="gray" points="242.18,-137.5 241.07,-148.03 248.51,-140.49 242.18,-137.5"/>
<text text-anchor="middle" x="338.13" y="-83.58" font-family="Times,serif" font-style="italic" font-size="10.00">温度・湿度値文面</text>
</g>
<!-- 時間計算 -->
<g id="node8" class="node">
<title>時間計算</title>
<ellipse fill="#eeeeee" stroke="black" cx="703.75" cy="-57.58" rx="32.06" ry="18"/>
<text text-anchor="middle" x="703.75" y="-53.33" font-family="Helvetica,sans-Serif" font-size="10.00">時間計算</text>
</g>
<!-- スプレッドシート&#45;&gt;時間計算 -->
<g id="edge16" class="edge">
<title>スプレッドシート&#45;&gt;時間計算</title>
<path fill="none" stroke="gray" d="M501.84,-78.42C548.28,-73.6 616.78,-66.5 660.58,-61.96"/>
<polygon fill="gray" stroke="gray" points="660.87,-65.44 670.46,-60.93 660.15,-58.48 660.87,-65.44"/>
<text text-anchor="middle" x="573.63" y="-87.08" font-family="Times,serif" font-style="italic" font-size="10.00">予め設定された位置情報</text>
<text text-anchor="middle" x="573.63" y="-76.58" font-family="Times,serif" font-style="italic" font-size="10.00">現在の位置情報</text>
</g>
<!-- line&#45;&gt;スプレッドシート -->
<g id="edge4" class="edge">
<title>line&#45;&gt;スプレッドシート</title>
<path fill="none" stroke="gray" d="M251.86,-149.2C263.21,-138.9 278.54,-126.64 294.25,-119.08 311.01,-111.02 352.96,-101.66 389.11,-94.58"/>
<polygon fill="gray" stroke="gray" points="389.46,-98.07 398.62,-92.74 388.13,-91.2 389.46,-98.07"/>
<text text-anchor="middle" x="338.13" y="-119.58" font-family="Times,serif" font-style="italic" font-size="10.00">位置情報反映</text>
</g>
<!-- 情報取得 -->
<g id="node5" class="node">
<title>情報取得</title>
<ellipse fill="#eeeeee" stroke="black" cx="451" cy="-234.58" rx="32.06" ry="18"/>
<text text-anchor="middle" x="451" y="-230.33" font-family="Helvetica,sans-Serif" font-size="10.00">情報取得</text>
</g>
<!-- line&#45;&gt;情報取得 -->
<g id="edge11" class="edge">
<title>line&#45;&gt;情報取得</title>
<path fill="none" stroke="gray" d="M259.81,-184.63C270.21,-190.72 282.46,-197.16 294.25,-201.58 331.59,-215.6 376.31,-224.3 408.23,-229.22"/>
<polygon fill="gray" stroke="gray" points="407.48,-232.65 417.88,-230.65 408.5,-225.72 407.48,-232.65"/>
<text text-anchor="middle" x="338.13" y="-225.58" font-family="Times,serif" font-style="italic" font-size="10.00">温度・湿度取得命令</text>
</g>
<!-- エアコン操作 -->
<g id="node6" class="node">
<title>エアコン操作</title>
<ellipse fill="#eeeeee" stroke="black" cx="703.75" cy="-228.58" rx="43.42" ry="18"/>
<text text-anchor="middle" x="703.75" y="-224.33" font-family="Helvetica,sans-Serif" font-size="10.00">エアコン操作</text>
</g>
<!-- line&#45;&gt;エアコン操作 -->
<g id="edge14" class="edge">
<title>line&#45;&gt;エアコン操作</title>
<path fill="none" stroke="gray" d="M259.64,-170.31C317.7,-176.37 455.49,-190.88 502,-197.08 553.19,-203.91 611.48,-213.23 652.01,-219.96"/>
<polygon fill="gray" stroke="gray" points="651.28,-223.38 661.72,-221.58 652.43,-216.48 651.28,-223.38"/>
<text text-anchor="middle" x="451" y="-197.58" font-family="Times,serif" font-style="italic" font-size="10.00">オン命令</text>
</g>
<!-- line&#45;&gt;エアコン操作 -->
<g id="edge15" class="edge">
<title>line&#45;&gt;エアコン操作</title>
<path fill="none" stroke="gray" d="M243.94,-185.98C254.5,-202.64 272.31,-226.52 294.25,-239.58 335.5,-264.14 352.41,-255.28 400,-261.58 500.17,-274.85 529.19,-292.96 627.25,-268.58 642.36,-264.83 657.77,-257.43 670.69,-250.01"/>
<polygon fill="gray" stroke="gray" points="672.41,-253.06 679.17,-244.9 668.8,-247.06 672.41,-253.06"/>
<text text-anchor="middle" x="451" y="-278.58" font-family="Times,serif" font-style="italic" font-size="10.00">オフ命令</text>
</g>
<!-- 位置情報取得 -->
<g id="node7" class="node">
<title>位置情報取得</title>
<ellipse fill="#eeeeee" stroke="black" cx="1161.13" cy="-130.58" rx="43.42" ry="18"/>
<text text-anchor="middle" x="1161.13" y="-126.33" font-family="Helvetica,sans-Serif" font-size="10.00">位置情報取得</text>
</g>
<!-- line&#45;&gt;位置情報取得 -->
<g id="edge9" class="edge">
<title>line&#45;&gt;位置情報取得</title>
<path fill="none" stroke="gray" d="M240.83,-185.88C250.35,-207.18 268.69,-242.15 294.25,-263.58 351.6,-311.67 375.16,-327.58 450,-327.58 450,-327.58 450,-327.58 936.1,-327.58 1037.34,-327.58 1114.59,-212.73 1145.46,-158.42"/>
<polygon fill="gray" stroke="gray" points="1148.48,-160.18 1150.28,-149.74 1142.36,-156.78 1148.48,-160.18"/>
<text text-anchor="middle" x="703.75" y="-328.58" font-family="Times,serif" font-style="italic" font-size="10.00">現在の位置情報取得</text>
</g>
<!-- ユーザー -->
<g id="node4" class="node">
<title>ユーザー</title>
<polygon fill="none" stroke="black" points="55,-151.58 0,-151.58 0,-115.58 55,-115.58 55,-151.58"/>
<text text-anchor="middle" x="27.5" y="-129.33" font-family="Helvetica,sans-Serif" font-size="10.00">ユーザー</text>
</g>
<!-- ユーザー&#45;&gt;スプレッドシート -->
<g id="edge3" class="edge">
<title>ユーザー&#45;&gt;スプレッドシート</title>
<path fill="none" stroke="gray" d="M47.98,-115.36C55.32,-109.44 64.06,-103.41 73,-99.58 164.52,-60.39 195,-72.39 294.25,-64.58 333.13,-61.53 343.36,-59.29 382,-64.58 384.32,-64.9 386.68,-65.28 389.05,-65.7"/>
<polygon fill="gray" stroke="gray" points="388.21,-69.1 398.71,-67.7 389.62,-62.25 388.21,-69.1"/>
<text text-anchor="middle" x="232.38" y="-81.08" font-family="Times,serif" font-style="italic" font-size="10.00">位置情報入力</text>
<text text-anchor="middle" x="232.38" y="-70.58" font-family="Times,serif" font-style="italic" font-size="10.00">現在の位置情報入力</text>
</g>
<!-- ユーザー&#45;&gt;line -->
<g id="edge5" class="edge">
<title>ユーザー&#45;&gt;line</title>
<path fill="none" stroke="gray" d="M55.42,-130.12C84.36,-127.25 131.45,-125.09 170.5,-135.08 178.72,-137.19 187.05,-140.61 194.8,-144.47"/>
<polygon fill="gray" stroke="gray" points="193.14,-147.55 203.61,-149.2 196.45,-141.38 193.14,-147.55"/>
<text text-anchor="middle" x="121.75" y="-135.58" font-family="Times,serif" font-style="italic" font-size="10.00">帰宅ボタン押下</text>
</g>
<!-- ユーザー&#45;&gt;line -->
<g id="edge6" class="edge">
<title>ユーザー&#45;&gt;line</title>
<path fill="none" stroke="gray" d="M55.15,-119.07C60.88,-116.59 67.02,-114.4 73,-113.08 115.33,-103.8 130.02,-97.61 170.5,-113.08 185.45,-118.8 199.05,-130.06 209.58,-140.88"/>
<polygon fill="gray" stroke="gray" points="206.98,-143.21 216.32,-148.22 212.14,-138.48 206.98,-143.21"/>
<text text-anchor="middle" x="121.75" y="-113.58" font-family="Times,serif" font-style="italic" font-size="10.00">気温・室温ボタン押下</text>
</g>
<!-- ユーザー&#45;&gt;line -->
<g id="edge7" class="edge">
<title>ユーザー&#45;&gt;line</title>
<path fill="none" stroke="gray" d="M40.56,-151.95C48.43,-162.17 59.7,-173.95 73,-179.58 111.83,-196.05 160.8,-188.55 193.93,-179.85"/>
<polygon fill="gray" stroke="gray" points="194.81,-183.24 203.49,-177.17 192.92,-176.5 194.81,-183.24"/>
<text text-anchor="middle" x="121.75" y="-189.58" font-family="Times,serif" font-style="italic" font-size="10.00">オンボタン押下</text>
</g>
<!-- ユーザー&#45;&gt;line -->
<g id="edge8" class="edge">
<title>ユーザー&#45;&gt;line</title>
<path fill="none" stroke="gray" d="M55.2,-141.37C61.03,-142.9 67.2,-144.4 73,-145.58 114.06,-153.94 161.77,-160.09 194.01,-163.73"/>
<polygon fill="gray" stroke="gray" points="193.31,-167.18 203.64,-164.79 194.08,-160.22 193.31,-167.18"/>
<text text-anchor="middle" x="121.75" y="-160.58" font-family="Times,serif" font-style="italic" font-size="10.00">オフボタン押下</text>
</g>
<!-- 情報取得&#45;&gt;スプレッドシート -->
<g id="edge12" class="edge">
<title>情報取得&#45;&gt;スプレッドシート</title>
<path fill="none" stroke="gray" d="M419.9,-229.68C388.08,-222.82 340.23,-206.99 317.94,-171.83 295.79,-136.9 344.66,-112.71 389.28,-98.61"/>
<polygon fill="gray" stroke="gray" points="390.18,-102 398.74,-95.76 388.16,-95.29 390.18,-102"/>
<text text-anchor="middle" x="338.13" y="-162.33" font-family="Times,serif" font-style="italic" font-size="10.00">温度・湿度値記録</text>
</g>
<!-- 情報取得&#45;&gt;エアコン操作 -->
<g id="edge2" class="edge">
<title>情報取得&#45;&gt;エアコン操作</title>
<path fill="none" stroke="gray" d="M483.5,-233.83C524.99,-232.84 598.58,-231.08 648.96,-229.87"/>
<polygon fill="gray" stroke="gray" points="648.86,-233.37 658.77,-229.64 648.69,-226.38 648.86,-233.37"/>
<text text-anchor="middle" x="573.63" y="-254.58" font-family="Times,serif" font-style="italic" font-size="10.00">温度・湿度取得命令</text>
<text text-anchor="middle" x="573.63" y="-244.08" font-family="Times,serif" font-style="italic" font-size="10.00">オン命令</text>
<text text-anchor="middle" x="573.63" y="-233.58" font-family="Times,serif" font-style="italic" font-size="10.00">オフ命令</text>
</g>
<!-- エアコン操作&#45;&gt;エアコン -->
<g id="edge1" class="edge">
<title>エアコン操作&#45;&gt;エアコン</title>
<path fill="none" stroke="gray" d="M747.62,-228.58C790.22,-228.58 854.94,-228.58 895.85,-228.58"/>
<polygon fill="gray" stroke="gray" points="895.71,-232.08 905.71,-228.58 895.71,-225.08 895.71,-232.08"/>
<text text-anchor="middle" x="824.13" y="-240.08" font-family="Times,serif" font-style="italic" font-size="10.00">操作法</text>
<text text-anchor="middle" x="824.13" y="-229.58" font-family="Times,serif" font-style="italic" font-size="10.00">操作命令</text>
</g>
<!-- 位置情報取得&#45;&gt;スプレッドシート -->
<g id="edge10" class="edge">
<title>位置情報取得&#45;&gt;スプレッドシート</title>
<path fill="none" stroke="gray" d="M1127.72,-118.77C1060.65,-95.16 901.27,-43.29 762.25,-30.58 710.47,-25.85 697.22,-28.72 645.25,-30.58 589.48,-32.58 572.92,-21.87 520,-39.58 507.55,-43.75 495.13,-50.74 484.38,-57.93"/>
<polygon fill="gray" stroke="gray" points="482.42,-55.02 476.26,-63.64 486.45,-60.75 482.42,-55.02"/>
<text text-anchor="middle" x="824.13" y="-46.58" font-family="Times,serif" font-style="italic" font-size="10.00">現在の位置情報記録</text>
</g>
<!-- 時間計算&#45;&gt;スプレッドシート -->
<g id="edge17" class="edge">
<title>時間計算&#45;&gt;スプレッドシート</title>
<path fill="none" stroke="gray" d="M672.88,-51.89C636.33,-45.97 572.79,-39.12 520,-51.08 511.57,-52.99 502.96,-56.08 494.83,-59.61"/>
<polygon fill="gray" stroke="gray" points="493.43,-56.41 485.84,-63.81 496.39,-62.75 493.43,-56.41"/>
<text text-anchor="middle" x="573.63" y="-51.58" font-family="Times,serif" font-style="italic" font-size="10.00">想定時間記録</text>
</g>
<!-- 帰宅時間再計算 -->
<g id="node9" class="node">
<title>帰宅時間再計算</title>
<ellipse fill="#eeeeee" stroke="black" cx="935.1" cy="-130.58" rx="49.1" ry="18"/>
<text text-anchor="middle" x="935.1" y="-126.33" font-family="Helvetica,sans-Serif" font-size="10.00">帰宅時間再計算</text>
</g>
<!-- 時間計算&#45;&gt;帰宅時間再計算 -->
<g id="edge18" class="edge">
<title>時間計算&#45;&gt;帰宅時間再計算</title>
<path fill="none" stroke="gray" d="M735.85,-59.48C769.48,-62.37 824.14,-69.55 868,-87.08 880.73,-92.17 893.58,-99.9 904.52,-107.44"/>
<polygon fill="gray" stroke="gray" points="902.19,-110.08 912.36,-113.06 906.27,-104.39 902.19,-110.08"/>
<text text-anchor="middle" x="824.13" y="-87.58" font-family="Times,serif" font-style="italic" font-size="10.00">帰宅時間計算</text>
</g>
<!-- 帰宅時間再計算&#45;&gt;スプレッドシート -->
<g id="edge19" class="edge">
<title>帰宅時間再計算&#45;&gt;スプレッドシート</title>
<path fill="none" stroke="gray" d="M886.07,-128.68C808.68,-125.19 651.74,-116.32 520,-97.58 517.67,-97.25 515.3,-96.89 512.91,-96.5"/>
<polygon fill="gray" stroke="gray" points="513.58,-93.07 503.13,-94.8 512.38,-99.96 513.58,-93.07"/>
<text text-anchor="middle" x="703.75" y="-122.58" font-family="Times,serif" font-style="italic" font-size="10.00">再計算された想定時間記録</text>
</g>
<!-- 帰宅時間再計算&#45;&gt;line -->
<g id="edge22" class="edge">
<title>帰宅時間再計算&#45;&gt;line</title>
<path fill="none" stroke="gray" d="M887.18,-135.16C880.74,-135.69 874.21,-136.19 868,-136.58 613.34,-152.79 548.15,-132.18 294.25,-157.58 286.68,-158.34 278.62,-159.45 270.93,-160.65"/>
<polygon fill="gray" stroke="gray" points="270.43,-157.19 261.14,-162.28 271.58,-164.09 270.43,-157.19"/>
<text text-anchor="middle" x="573.63" y="-144.58" font-family="Times,serif" font-style="italic" font-size="10.00">エアコンオン通知</text>
</g>
<!-- 帰宅時間再計算&#45;&gt;エアコン操作 -->
<g id="edge21" class="edge">
<title>帰宅時間再計算&#45;&gt;エアコン操作</title>
<path fill="none" stroke="gray" d="M906.43,-145.61C894.71,-151.77 880.82,-158.79 868,-164.58 828,-182.66 781.26,-200.68 748.07,-212.97"/>
<polygon fill="gray" stroke="gray" points="746.96,-209.65 738.79,-216.38 749.38,-216.22 746.96,-209.65"/>
<text text-anchor="middle" x="824.13" y="-199.58" font-family="Times,serif" font-style="italic" font-size="10.00">エアコンオン命令</text>
</g>
<!-- 帰宅時間再計算&#45;&gt;位置情報取得 -->
<g id="edge20" class="edge">
<title>帰宅時間再計算&#45;&gt;位置情報取得</title>
<path fill="none" stroke="gray" d="M984.44,-130.58C1020.34,-130.58 1069.32,-130.58 1106.44,-130.58"/>
<polygon fill="gray" stroke="gray" points="1106.04,-134.08 1116.04,-130.58 1106.04,-127.08 1106.04,-134.08"/>
<text text-anchor="middle" x="1050.96" y="-131.58" font-family="Times,serif" font-style="italic" font-size="10.00">ユーザの位置情報取得</text>
</g>
</g>
</svg>
